<?xml version="1.0" standalone="no"?><!DOCTYPE svg PUBLIC "-//W3C//DTD SVG 1.1//EN" "http://www.w3.org/Graphics/SVG/1.1/DTD/svg11.dtd"><svg t="1646657795345" class="icon" viewBox="0 0 1024 1024" version="1.1" xmlns="http://www.w3.org/2000/svg" p-id="925" xmlns:xlink="http://www.w3.org/1999/xlink" width="200" height="200"><defs><style type="text/css"></style></defs><path d="M520.82 871.892c75.063-83.897 140.5-217.13 175.708-374.218 36.98-165.01 32.574-320.44-4.243-429.407-75.055 83.896-140.496 217.129-175.708 374.22-36.97 164.998-32.573 320.434 4.243 429.405z" fill="#5DA500" p-id="926"></path><path d="M520.82 892.372a20.487 20.487 0 0 1-19.401-13.923c-39.55-117.07-41.312-277.603-4.823-440.436 34.536-154.092 100.3-293.834 180.428-383.4a20.473 20.473 0 0 1 34.666 7.103c39.554 117.081 41.315 277.614 4.82 440.437-34.533 154.098-100.3 293.836-180.426 383.395a20.5 20.5 0 0 1-15.264 6.824z m162.642-781.316c-64.683 84.378-117.426 204.411-146.9 335.913-31.215 139.291-33.44 275.992-6.918 382.133 64.682-84.374 117.425-204.407 146.9-335.91 31.214-139.284 33.443-275.988 6.918-382.136z" fill="#167203" p-id="927"></path><path d="M342.456 683.394C452.584 660.057 584.1 591.24 705.328 485.308 832.655 374.04 920.945 246.043 955.624 136.376c-110.131 23.334-241.643 92.153-362.868 198.09-127.324 111.264-215.62 239.268-250.3 348.928z" fill="#5DA500" p-id="928"></path><path d="M342.456 703.874a20.477 20.477 0 0 1-19.524-26.658c37.26-117.818 130.697-248.368 256.352-358.175 118.903-103.909 254.525-177.79 372.097-202.7a20.477 20.477 0 0 1 23.77 26.21c-37.26 117.821-130.692 248.371-256.347 358.178C599.897 604.634 464.27 678.513 346.703 703.43a20.65 20.65 0 0 1-4.247 0.444z m580.772-538.19c-102.045 29.852-215.525 95.528-316.993 184.203-107.489 93.935-190.06 202.902-231.38 304.203 102.046-29.856 215.522-95.529 316.997-184.2 107.49-93.935 190.058-202.91 231.376-304.207z" fill="#167203" p-id="929"></path><path d="M68.372 566.262a350.525 350.525 0 1 0 701.051 0 350.525 350.525 0 1 0-701.05 0z" fill="#603900" p-id="930"></path><path d="M418.898 937.267c-204.575 0-371.006-166.434-371.006-371.005s166.435-371.006 371.006-371.006 371.005 166.431 371.005 371.006S623.47 937.267 418.898 937.267z m0-701.05c-181.989 0-330.046 148.056-330.046 330.045S236.91 896.307 418.898 896.307 748.943 748.25 748.943 566.262 600.887 236.216 418.898 236.216z" fill="#724400" p-id="931"></path><path d="M284.355 637.075a318.659 318.659 0 1 0 637.317 0 318.659 318.659 0 1 0-637.317 0z" fill="#FFFFFF" p-id="932"></path><path d="M603.013 976.213c-187.003 0-339.138-152.135-339.138-339.138s152.139-339.139 339.138-339.139c187.003 0 339.139 152.136 339.139 339.139S790.016 976.213 603.013 976.213z m0-637.317c-164.417 0-298.178 133.762-298.178 298.179s133.761 298.178 298.178 298.178 298.179-133.761 298.179-298.178S767.43 338.896 603.013 338.896z" fill="#7A4C01" p-id="933"></path><path d="M390.574 637.075a212.439 212.439 0 1 0 424.878 0 212.439 212.439 0 1 0-424.878 0z" fill="#EAEAEA" p-id="934"></path><path d="M161.608 690.67a20.456 20.456 0 0 1-19.272-13.588c-2.485-6.966-59.351-172.26 68.601-314.61a20.48 20.48 0 0 1 30.464 27.385c-111.278 123.795-62.594 267.462-60.467 273.518 3.741 10.656-1.836 22.35-12.483 26.115a20.524 20.524 0 0 1-6.843 1.18zM254.075 324.437a25.685 25.685 0 1 0 51.37 0 25.685 25.685 0 1 0-51.37 0z" fill="#FFFFFF" p-id="935"></path></svg>